<?xml version="1.0" standalone="no"?>
<!DOCTYPE svg PUBLIC "-//W3C//DTD SVG 20010904//EN"
 "http://www.w3.org/TR/2001/REC-SVG-20010904/DTD/svg10.dtd">
<svg version="1.0" xmlns="http://www.w3.org/2000/svg"
 width="5062.000000pt" height="5062.000000pt" viewBox="0 0 5062.000000 5062.000000"
 preserveAspectRatio="xMidYMid meet">
<metadata>
Created by potrace 1.11, written by Peter Selinger 2001-2013
</metadata>
<g transform="translate(0.000000,5062.000000) scale(0.100000,-0.100000)"
fill="#000000" stroke="none">
<path d="M20677 46173 c-1 0 -110 -4 -242 -7 -132 -4 -274 -8 -315 -11 -41 -2
-131 -6 -200 -10 -69 -3 -154 -8 -190 -10 -157 -10 -248 -16 -290 -20 -25 -2
-81 -6 -125 -10 -44 -3 -96 -8 -115 -10 -19 -2 -66 -7 -105 -10 -91 -7 -171
-15 -215 -20 -19 -2 -82 -9 -140 -15 -58 -6 -122 -13 -142 -15 -21 -3 -56 -7
-78 -10 -22 -3 -57 -7 -77 -10 -21 -2 -56 -7 -78 -10 -46 -6 -89 -11 -160 -20
-27 -3 -59 -8 -70 -10 -11 -2 -42 -7 -70 -10 -27 -3 -75 -10 -105 -15 -30 -5
-80 -12 -110 -15 -30 -4 -58 -9 -61 -11 -3 -1 -30 -6 -59 -9 -30 -4 -57 -8
-60 -10 -3 -2 -30 -6 -60 -10 -30 -4 -64 -9 -75 -11 -64 -11 -99 -17 -175 -31
-47 -8 -94 -17 -105 -19 -24 -5 -178 -33 -220 -40 -24 -5 -200 -40 -290 -60
-24 -5 -112 -23 -140 -28 -11 -3 -42 -10 -70 -16 -27 -7 -61 -14 -75 -16 -20
-4 -526 -124 -581 -138 -358 -93 -424 -111 -724 -198 -93 -27 -186 -54 -205
-60 -159 -45 -684 -217 -895 -293 -71 -26 -141 -51 -155 -55 -39 -13 -285
-104 -390 -145 -52 -20 -147 -57 -210 -81 -63 -25 -124 -49 -135 -54 -11 -5
-60 -26 -110 -46 -122 -49 -340 -141 -395 -166 -25 -11 -79 -35 -120 -53 -89
-38 -151 -66 -245 -110 -38 -18 -95 -44 -125 -58 -384 -177 -991 -485 -1313
-668 -38 -21 -70 -39 -72 -39 -4 0 -337 -191 -470 -270 -148 -87 -580 -353
-585 -360 -3 -3 -23 -17 -45 -30 -49 -29 -474 -310 -570 -377 -172 -120 -229
-159 -255 -178 -37 -27 -177 -126 -204 -145 -162 -112 -923 -701 -956 -740 -3
-3 -25 -21 -50 -40 -25 -19 -50 -39 -56 -45 -6 -5 -33 -28 -60 -50 -48 -40
-253 -215 -309 -264 -17 -14 -64 -55 -105 -91 -41 -36 -95 -84 -120 -107 -25
-23 -56 -51 -70 -63 -14 -12 -63 -56 -109 -98 -46 -42 -98 -90 -115 -105 -290
-265 -917 -893 -1161 -1162 -14 -16 -43 -48 -63 -70 -87 -95 -231 -255 -282
-314 -30 -35 -66 -76 -80 -91 -14 -15 -34 -38 -45 -51 -11 -13 -61 -71 -110
-129 -50 -58 -108 -127 -130 -155 -22 -27 -45 -54 -51 -60 -6 -5 -28 -32 -50
-60 -21 -27 -41 -52 -44 -55 -3 -3 -41 -50 -85 -105 -44 -55 -84 -105 -90
-112 -12 -15 -19 -24 -65 -83 -19 -25 -38 -46 -42 -48 -5 -2 -8 -8 -8 -14 0
-6 -8 -18 -18 -27 -14 -13 -73 -90 -174 -226 -4 -5 -18 -23 -32 -40 -23 -29
-315 -430 -346 -475 -8 -12 -35 -50 -60 -85 -25 -34 -51 -71 -57 -81 -7 -11
-32 -46 -54 -79 -225 -324 -501 -754 -713 -1110 -75 -126 -141 -237 -146 -245
-19 -31 -74 -127 -98 -170 -14 -25 -42 -75 -63 -112 -22 -36 -39 -68 -39 -71
0 -2 -22 -42 -48 -88 -47 -82 -97 -174 -202 -374 -59 -113 -330 -653 -330
-659 0 -3 -56 -123 -150 -321 -78 -164 -279 -633 -392 -915 -154 -385 -428
-1144 -473 -1310 -3 -8 -15 -49 -29 -90 -35 -107 -108 -342 -111 -354 -1 -6
-10 -38 -20 -71 -10 -33 -20 -64 -21 -70 -1 -5 -20 -73 -42 -150 -84 -290
-223 -837 -271 -1060 -10 -50 -33 -153 -50 -230 -17 -77 -33 -151 -35 -165 -3
-14 -18 -92 -35 -175 -30 -156 -64 -339 -86 -470 -3 -22 -10 -60 -15 -85 -5
-25 -11 -63 -14 -85 -3 -22 -7 -50 -10 -61 -7 -33 -59 -387 -72 -489 -2 -22
-7 -51 -9 -65 -4 -27 -15 -110 -20 -150 -9 -89 -18 -157 -20 -170 -3 -16 -16
-135 -20 -185 -2 -16 -5 -52 -9 -80 -3 -27 -8 -75 -11 -105 -5 -56 -11 -117
-20 -212 -3 -29 -7 -82 -10 -118 -2 -36 -7 -90 -10 -120 -2 -30 -7 -100 -10
-155 -3 -55 -8 -118 -10 -140 -3 -37 -12 -198 -20 -370 -24 -522 -24 -1418 0
-1830 2 -33 6 -125 10 -205 4 -80 8 -161 10 -180 2 -19 6 -87 9 -150 4 -63 8
-125 10 -137 3 -13 7 -68 11 -123 3 -56 7 -115 10 -133 2 -18 7 -63 10 -102 6
-76 11 -119 20 -208 4 -33 8 -80 11 -105 5 -61 14 -140 19 -172 2 -14 7 -50
10 -80 4 -30 8 -66 10 -80 4 -27 12 -90 20 -167 3 -27 8 -59 10 -73 9 -49 14
-86 20 -135 3 -27 8 -63 10 -80 3 -16 7 -41 9 -55 2 -14 7 -41 10 -60 3 -19 8
-53 11 -75 14 -98 101 -603 109 -625 3 -8 7 -33 10 -55 7 -49 8 -53 57 -295
22 -107 61 -283 86 -390 24 -107 47 -206 49 -220 16 -86 185 -723 268 -1010
140 -482 351 -1105 548 -1620 80 -208 279 -695 339 -827 11 -26 27 -61 34 -78
24 -54 152 -339 185 -410 46 -101 390 -792 452 -910 48 -89 107 -199 173 -320
48 -89 209 -372 230 -405 12 -19 24 -40 26 -45 8 -20 299 -499 407 -670 184
-290 427 -652 615 -915 104 -145 271 -375 277 -380 3 -3 39 -50 80 -105 41
-55 77 -102 80 -105 3 -3 25 -32 50 -65 55 -75 338 -429 443 -555 43 -52 86
-104 95 -115 60 -73 118 -141 123 -145 4 -3 33 -37 65 -75 33 -39 73 -86 90
-105 17 -19 73 -82 124 -140 52 -58 112 -125 135 -150 23 -25 71 -76 106 -115
488 -535 1110 -1137 1724 -1670 17 -15 125 -105 240 -202 116 -97 221 -185
235 -197 14 -11 45 -37 70 -56 25 -19 54 -42 65 -52 22 -18 174 -138 190 -150
6 -4 35 -27 65 -51 94 -74 531 -401 600 -448 36 -24 74 -52 84 -61 11 -10 23
-18 27 -18 4 0 14 -6 21 -13 30 -30 736 -504 926 -623 35 -21 75 -47 90 -56
15 -10 36 -22 47 -28 11 -5 55 -32 98 -60 43 -27 83 -50 88 -50 5 0 9 -4 9
-10 0 -5 4 -10 8 -10 4 0 82 -44 172 -98 91 -54 172 -101 180 -105 8 -4 31
-17 50 -29 66 -41 456 -256 660 -365 137 -74 601 -307 765 -385 241 -114 495
-231 633 -289 54 -23 120 -51 147 -64 141 -63 681 -281 870 -349 55 -21 111
-42 125 -48 172 -73 1065 -367 1395 -460 39 -11 99 -28 135 -38 36 -10 124
-35 195 -55 116 -33 349 -94 415 -110 14 -3 41 -10 60 -15 33 -9 128 -31 330
-79 47 -11 96 -22 110 -25 14 -2 54 -11 90 -20 36 -8 76 -17 90 -20 14 -2 45
-9 70 -15 25 -5 56 -12 70 -15 14 -2 50 -10 80 -16 30 -6 66 -13 80 -16 14 -3
68 -13 120 -24 126 -25 296 -57 340 -64 33 -5 47 -8 110 -21 14 -3 45 -7 69
-10 23 -3 46 -7 50 -9 3 -2 29 -7 56 -10 28 -3 61 -8 75 -11 14 -3 41 -7 60
-10 19 -3 44 -7 56 -9 12 -2 45 -7 75 -11 30 -3 61 -8 69 -10 15 -4 51 -9 135
-20 22 -2 51 -7 65 -10 14 -3 43 -7 65 -9 22 -3 96 -12 165 -21 69 -10 136
-18 150 -20 27 -3 137 -15 185 -21 16 -1 61 -6 100 -9 38 -4 81 -8 95 -10 28
-4 113 -13 205 -20 33 -3 78 -7 100 -10 40 -5 90 -9 255 -20 47 -3 108 -8 135
-10 72 -6 294 -19 520 -30 629 -31 1668 -22 2280 20 51 3 138 9 305 20 74 5
207 16 240 20 19 2 69 7 110 10 41 3 91 8 110 10 19 2 64 7 100 10 36 3 81 8
100 10 19 2 60 7 90 10 65 7 97 11 210 25 47 6 102 13 123 15 88 11 119 15
157 20 21 3 52 7 67 9 30 4 102 15 143 21 14 2 45 7 70 10 56 8 90 13 160 25
30 5 73 12 95 15 22 4 54 9 70 12 17 2 39 6 50 8 11 1 47 7 80 13 33 6 74 13
90 15 17 3 71 13 120 22 50 9 99 19 110 21 11 2 31 6 45 9 14 2 39 7 55 10 17
3 41 7 55 10 14 3 39 8 55 11 17 3 107 21 200 41 94 19 177 36 185 38 60 12
611 142 720 170 74 20 142 37 150 39 77 19 304 80 340 91 25 8 182 55 350 105
168 50 382 115 475 146 94 31 175 57 180 58 6 2 17 6 25 9 8 4 80 29 160 56
198 67 289 99 330 116 19 7 87 33 150 56 122 44 481 183 515 199 11 5 72 30
135 56 150 60 429 178 505 214 33 15 76 34 95 43 71 31 157 71 250 114 52 24
131 61 175 81 89 41 695 345 820 412 126 66 313 169 395 215 41 24 129 73 195
110 580 328 1437 881 1908 1231 23 17 114 84 202 150 240 178 529 401 680 525
11 9 88 72 170 140 83 68 161 134 175 145 14 12 77 66 140 120 133 115 133
114 310 273 l135 121 1220 -6 c1435 -6 2232 -10 3815 -19 1746 -9 2658 -14
3880 -19 l1105 -6 66 23 c74 25 121 55 190 119 25 24 79 72 119 108 40 36 78
70 84 75 13 12 267 239 315 280 18 17 43 39 55 50 12 11 53 47 90 80 38 33 83
74 100 90 18 17 61 55 95 85 35 30 69 60 75 66 10 9 123 110 395 353 41 36 79
71 85 76 6 6 79 70 161 144 83 74 171 153 196 175 134 120 204 183 223 199 40
35 138 122 165 147 43 40 121 110 201 180 40 36 85 76 99 89 26 24 143 128
214 191 22 19 51 46 66 59 14 12 55 49 91 81 36 32 77 69 91 81 14 13 56 51
93 84 37 32 78 68 90 80 12 11 60 54 106 95 46 41 88 80 94 85 6 6 49 44 96
85 137 121 162 143 197 177 19 18 46 42 61 54 15 11 47 39 72 62 25 23 83 76
130 117 92 81 147 131 190 170 15 14 60 54 101 90 117 104 284 253 289 259 3
3 41 37 85 76 44 38 82 72 85 75 3 3 48 43 100 89 52 46 112 103 133 125 40
43 92 140 103 191 8 41 12 387 19 1610 3 578 8 1358 10 1735 2 377 7 1101 10
1609 3 507 8 927 11 932 3 5 7 296 9 647 2 350 7 1044 10 1542 3 498 7 1256
10 1685 2 429 7 1165 10 1635 3 470 8 1215 10 1655 10 1641 15 2278 21 2287 3
5 8 287 9 626 2 339 7 1076 10 1637 19 3034 18 2873 10 2930 -8 56 -52 152
-90 197 -14 16 -57 59 -97 95 -104 95 -278 255 -303 278 -12 11 -62 56 -111
100 -49 44 -91 82 -94 86 -3 3 -113 104 -245 224 -132 121 -245 224 -251 230
-6 5 -48 44 -93 85 -46 41 -95 86 -110 100 -66 61 -236 217 -253 232 -36 32
-202 183 -241 221 -22 20 -56 52 -76 69 -29 25 -187 169 -261 238 -9 8 -38 35
-66 59 -27 24 -74 67 -104 96 -30 28 -84 77 -120 110 -79 71 -256 233 -325
297 -27 26 -61 56 -75 68 -14 12 -45 40 -70 63 -25 23 -97 89 -160 147 -63 58
-120 110 -126 115 -6 6 -50 46 -99 90 -48 44 -102 94 -120 110 -17 17 -58 54
-91 84 -110 99 -237 216 -298 272 -34 31 -73 67 -87 80 -32 28 -180 163 -219
199 -109 99 -279 255 -470 431 -352 322 -356 325 -495 355 -24 6 -219 7 -4460
29 -1765 9 -3122 16 -3785 20 -393 2 -797 4 -898 5 l-183 0 -247 244 c-286
283 -386 379 -587 562 -16 15 -55 50 -86 78 -182 166 -414 367 -664 575 -269
223 -310 257 -575 464 -116 91 -454 343 -620 462 -195 141 -701 488 -735 505
-6 3 -57 36 -114 74 -175 115 -614 385 -756 466 -16 9 -66 38 -110 65 -433
257 -1194 653 -1695 882 -30 14 -89 41 -130 60 -214 100 -758 333 -910 390
-36 13 -78 30 -95 37 -46 21 -380 147 -570 216 -450 163 -971 331 -1395 449
-80 23 -158 45 -175 50 -28 9 -288 78 -324 86 -13 3 -223 56 -281 71 -105 27
-513 119 -635 144 -49 10 -160 32 -245 49 -85 18 -171 34 -190 37 -19 3 -43 7
-52 10 -19 6 -36 9 -98 19 -51 8 -74 12 -110 20 -14 2 -38 7 -55 9 -16 3 -73
12 -125 21 -52 9 -108 18 -125 21 -16 2 -41 6 -55 9 -14 2 -45 7 -70 10 -25 3
-70 10 -100 15 -30 5 -75 12 -100 15 -25 3 -56 8 -70 10 -46 8 -333 45 -460
60 -30 3 -66 8 -80 10 -14 2 -56 7 -95 10 -38 4 -83 9 -100 11 -68 8 -142 15
-300 29 -33 3 -82 7 -110 10 -110 10 -163 15 -230 20 -38 2 -104 7 -145 10
-95 7 -217 14 -350 20 -58 3 -145 7 -195 10 -245 13 -1279 28 -1288 18z"/>
</g>
</svg>
